<?xml version="1.0" standalone="no"?>
<!DOCTYPE svg PUBLIC "-//W3C//DTD SVG 20010904//EN"
 "http://www.w3.org/TR/2001/REC-SVG-20010904/DTD/svg10.dtd">
<svg version="1.0" xmlns="http://www.w3.org/2000/svg"
 width="1073.000000pt" height="539.000000pt" viewBox="0 0 1073.000000 539.000000"
 preserveAspectRatio="xMidYMid meet">

<g transform="translate(0.000000,539.000000) scale(0.100000,-0.100000)"
fill="#000000" stroke="none">
<path d="M9692 4991 c-91 -25 -145 -49 -213 -95 -68 -46 -162 -138 -197 -193
l-27 -43 -467 0 -467 0 -3 68 -3 67 -3833 3 -3832 2 2 -427 3 -428 223 0 222
0 0 -1702 0 -1703 385 0 385 0 0 1705 0 1705 3225 0 3225 0 0 65 0 65 475 0
475 0 42 -47 c123 -137 237 -219 362 -259 179 -57 376 -7 534 137 57 53 108
116 117 147 l6 22 -219 0 -218 0 -94 156 -94 155 34 62 c19 34 57 103 86 152
l52 90 231 3 c163 2 231 6 231 14 0 6 -42 52 -92 102 -135 133 -235 181 -398
191 -66 4 -102 1 -158 -14z m-7572 -253 c1 -20 41 -302 44 -305 3 -4 20 122
32 240 l7 67 108 0 109 0 0 -360 0 -360 -70 0 -70 0 -1 143 c-1 78 0 170 1
203 4 124 -17 68 -34 -94 -30 -266 -24 -246 -75 -250 -24 -2 -47 0 -52 5 -4 4
-19 99 -33 210 -14 111 -27 208 -28 215 -1 7 -5 -86 -8 -207 l-5 -220 -70 0
-70 0 -3 358 -2 357 110 0 c60 0 110 -1 110 -2z m676 -20 c47 -26 64 -71 64
-173 0 -96 -8 -118 -48 -139 l-27 -14 26 -12 c15 -7 32 -23 37 -36 6 -12 12
-90 13 -171 l1 -148 -76 -3 -76 -3 0 150 c0 123 -3 152 -16 165 -8 9 -19 16
-24 16 -5 0 -11 -73 -12 -162 l-3 -163 -80 0 -80 0 -3 358 -2 359 137 -4 c105
-3 145 -7 169 -20z m234 -623 l0 -76 -57 3 -58 3 -3 73 -3 72 61 0 60 0 0 -75z"/>
<path d="M2660 4540 c0 -72 2 -80 19 -80 24 0 31 19 31 80 0 46 -17 80 -41 80
-5 0 -9 -36 -9 -80z"/>
<path d="M4810 3889 c-102 -10 -243 -49 -324 -90 -262 -134 -404 -350 -438
-669 -18 -177 -19 -1622 0 -1800 17 -163 46 -309 78 -389 85 -215 275 -363
549 -427 122 -29 429 -27 541 3 256 68 475 251 555 462 51 135 79 388 79 709
l0 182 -384 0 -384 0 -5 -352 c-3 -221 -9 -366 -16 -389 -23 -74 -99 -107
-174 -75 -82 34 -86 87 -86 1136 0 804 6 1020 33 1084 17 41 60 66 113 66 54
0 85 -19 108 -65 19 -38 20 -64 23 -457 l4 -418 385 0 386 0 -6 333 c-6 335
-17 474 -52 607 -52 200 -200 369 -407 465 -98 45 -208 72 -343 85 -120 11
-113 11 -235 -1z"/>
<path d="M8935 3889 c-156 -9 -250 -32 -370 -92 -217 -108 -362 -305 -409
-557 -47 -249 -48 -1825 -1 -2091 45 -260 208 -475 440 -580 132 -60 211 -74
420 -73 217 0 285 13 432 83 161 78 269 184 349 346 92 188 95 224 101 1130 6
1009 -3 1170 -78 1351 -84 202 -232 347 -428 422 -138 53 -274 71 -456 61z
m136 -566 c19 -12 34 -32 42 -58 18 -60 17 -2082 -1 -2143 -17 -55 -60 -85
-115 -78 -51 6 -73 27 -89 89 -19 74 -19 2051 0 2114 24 80 98 114 163 76z"/>
<path d="M2507 3823 c-4 -3 -7 -739 -7 -1635 l0 -1628 670 0 670 0 0 325 0
325 -285 0 -285 0 0 360 0 360 240 0 240 0 0 310 0 310 -240 0 -240 0 0 310 0
310 255 0 255 0 0 330 0 330 -633 0 c-349 0 -637 -3 -640 -7z"/>
<path d="M6127 3823 c-7 -7 -10 -3257 -3 -3264 2 -2 149 -3 325 -1 l321 3 1
727 0 727 63 -230 c72 -262 299 -1106 317 -1177 l11 -48 339 0 339 0 0 1635 0
1635 -320 0 -320 0 0 -727 c0 -399 -3 -724 -6 -721 -3 4 -43 134 -88 290 -46
155 -141 480 -211 721 l-128 437 -317 0 c-174 0 -320 -3 -323 -7z"/>
</g>
</svg>
